<?xml version="1.0" encoding="UTF-8"?>
<svg id="Calque_1" xmlns="http://www.w3.org/2000/svg" version="1.1" viewBox="0 0 64 64">
  <!-- Generator: Adobe Illustrator 30.0.0, SVG Export Plug-In . SVG Version: 2.1.1 Build 123)  -->
  <defs>
    <style>
      .st0 {
        opacity: .22;
      }

      .st0, .st1 {
        fill: #fff;
      }

      .st2 {
        fill: #859baa;
      }

      .st3 {
        fill: #96a8b7;
      }
    </style>
  </defs>
  <path class="st2" d="M59.64,63.85H4.36c-2.33,0-4.22-1.9-4.22-4.22V4.34C.14,2.02,2.03.12,4.36.12h55.28c2.33,0,4.22,1.89,4.22,4.22v55.28c0,2.33-1.9,4.22-4.22,4.22ZM4.36.64C2.32.64.65,2.3.65,4.34v55.28c0,2.04,1.66,3.7,3.71,3.7h55.28c2.04,0,3.7-1.66,3.7-3.7V4.34c0-2.04-1.66-3.7-3.7-3.7H4.36Z"/>
  <rect class="st3" x=".39" y=".41" width="63.21" height="63.21" rx="3.96" ry="3.96"/>
  <path class="st0" d="M63.55,3.7s-1.31-2.57-3.45-2.55c-1.35.01-55.84-.04-55.84-.04,0,0-3.03.32-3.85,2.65C.97,1.44,2.88.42,4.37.4s55.53.03,55.53.03c0,0,3.16.17,3.65,3.27Z"/>
  <path class="st1" d="M50.73,12.14c-1.47-1.05-3.07-1.15-4.75-1.15h-22.75c-4.27,0-7.74,3.47-7.74,7.74v22.3l-4.67.08c-.81.01-1.45.67-1.45,1.48,0,5.27,2.2,7.72,4.05,8.85,2.1,1.28,4.39,1.3,5.33,1.3h19.1c.31.03.61.04.9.04,1.76,0,3.22-.49,4.35-1.46,1.63-1.4,2.46-3.72,2.46-6.89l.07-21.71h7.51c.82,0,1.48-.66,1.48-1.48,0-4.01-1.42-7.33-3.89-9.11ZM18.77,49.79c-.69,0-2.38,0-3.8-.87-1.46-.89-2.32-2.53-2.57-4.87l19.04-.33v.13c0,2.64.83,4.56,1.98,5.94h-14.65ZM42.5,21.35l-.07,23.09c0,1.52-.24,3.54-1.36,4.51-.6.51-1.47.74-2.61.69-1.38-.39-4.05-1.68-4.05-5.78v-1.63c0-.4-.16-.78-.44-1.06s-.66-.44-1.06-.42l-14.26.25v-22.25c0-2.53,2.06-4.6,4.6-4.6h20.62c-.76,1.54-1.36,3.83-1.36,7.21ZM45.7,19.77c.34-4.83,2.19-5.73,2.19-5.73l.09-.03c.35.12.7.29,1.03.53,1.41,1.01,2.31,2.87,2.58,5.23h-5.89Z"/>
</svg>